<svg width="30" height="31" viewBox="0 0 30 31" fill="none" xmlns="http://www.w3.org/2000/svg">
<g id="carbon:result">
<path id="Vector" d="M13.125 22.0625H20.625V23.9375H13.125V22.0625ZM9.375 22.0625H11.25V23.9375H9.375V22.0625ZM13.125 17.375H20.625V19.25H13.125V17.375ZM9.375 17.375H11.25V19.25H9.375V17.375ZM13.125 12.6875H20.625V14.5625H13.125V12.6875ZM9.375 12.6875H11.25V14.5625H9.375V12.6875Z" fill="white"/>
<path id="Vector_2" d="M23.4375 5.1875H20.625V4.25C20.625 3.75272 20.4275 3.27581 20.0758 2.92417C19.7242 2.57254 19.2473 2.375 18.75 2.375H11.25C10.7527 2.375 10.2758 2.57254 9.92418 2.92417C9.57254 3.27581 9.375 3.75272 9.375 4.25V5.1875H6.5625C6.06522 5.1875 5.58831 5.38504 5.23667 5.73667C4.88504 6.08831 4.6875 6.56522 4.6875 7.0625V26.75C4.6875 27.2473 4.88504 27.7242 5.23667 28.0758C5.58831 28.4275 6.06522 28.625 6.5625 28.625H23.4375C23.9348 28.625 24.4117 28.4275 24.7633 28.0758C25.115 27.7242 25.3125 27.2473 25.3125 26.75V7.0625C25.3125 6.56522 25.115 6.08831 24.7633 5.73667C24.4117 5.38504 23.9348 5.1875 23.4375 5.1875ZM11.25 4.25H18.75V8H11.25V4.25ZM23.4375 26.75H6.5625V7.0625H9.375V9.875H20.625V7.0625H23.4375V26.75Z" fill="white"/>
</g>
</svg>
