<svg width="30" height="31" viewBox="0 0 30 31" fill="none" xmlns="http://www.w3.org/2000/svg">
<g id="ph:student-fill">
<path id="Vector" d="M26.5424 7.10937L15.2924 3.35937C15.1015 3.30062 14.8974 3.30062 14.7065 3.35937L3.46819 7.10937H3.44476L3.32757 7.16796H3.31585L3.19866 7.23827C3.19866 7.24999 3.18694 7.24999 3.17523 7.26171L3.08148 7.34374L2.99944 7.43749C2.99944 7.44921 2.98773 7.44921 2.98773 7.46093L2.91741 7.5664C2.91741 7.57812 2.91741 7.57812 2.90569 7.58983L2.85882 7.6953L2.82366 7.82421V7.85937C2.8121 7.90529 2.80815 7.95279 2.81194 7.99999V17.375C2.81194 17.6236 2.91072 17.8621 3.08653 18.0379C3.26235 18.2137 3.5008 18.3125 3.74944 18.3125C3.99808 18.3125 4.23654 18.2137 4.41236 18.0379C4.58817 17.8621 4.68694 17.6236 4.68694 17.375V9.30077L8.62444 10.6133C7.88471 11.7973 7.49472 13.1664 7.49944 14.5625C7.49988 15.8322 7.82266 17.0811 8.43756 18.192C9.05246 19.3029 9.93933 20.2395 11.0151 20.9141C8.7796 21.7597 6.87115 23.2947 5.56585 25.2969C5.4328 25.5073 5.38773 25.7615 5.44034 26.0048C5.49294 26.2481 5.63902 26.461 5.8471 26.5976C5.94921 26.6653 6.06374 26.712 6.18404 26.7351C6.30434 26.7582 6.42802 26.7572 6.54792 26.7321C6.66782 26.707 6.78155 26.6584 6.88253 26.5891C6.9835 26.5197 7.06971 26.431 7.13616 26.3281C7.98709 25.0174 9.15218 23.9401 10.5255 23.1944C11.8988 22.4486 13.4367 22.058 14.9994 22.058C16.5622 22.058 18.1001 22.4486 19.4734 23.1944C20.8467 23.9401 22.0118 25.0174 22.8627 26.3281C22.9483 26.4581 23.0649 26.5647 23.202 26.6383C23.339 26.712 23.4923 26.7504 23.6479 26.75C23.8275 26.7519 24.0033 26.6987 24.1518 26.5976C24.3599 26.461 24.5059 26.2481 24.5585 26.0048C24.6112 25.7615 24.5661 25.5073 24.433 25.2969C23.1277 23.2947 21.2193 21.7597 18.9838 20.9141C20.0596 20.2395 20.9464 19.3029 21.5613 18.192C22.1762 17.0811 22.499 15.8322 22.4994 14.5625C22.5042 13.1664 22.1142 11.7973 21.3744 10.6133L26.5424 8.89062C26.73 8.82897 26.8933 8.70968 27.0091 8.54975C27.1248 8.38982 27.1872 8.19743 27.1872 7.99999C27.1872 7.80256 27.1248 7.61016 27.0091 7.45023C26.8933 7.29031 26.73 7.17102 26.5424 7.10937ZM14.9994 20.1875C13.5076 20.1875 12.0769 19.5949 11.022 18.54C9.96707 17.4851 9.37444 16.0543 9.37444 14.5625C9.3767 13.3622 9.75814 12.1933 10.4643 11.2226L14.7065 12.6406C14.8968 12.7032 15.1021 12.7032 15.2924 12.6406L19.5346 11.2226C20.2407 12.1933 20.6222 13.3622 20.6244 14.5625C20.6244 16.0543 20.0318 17.4851 18.9769 18.54C17.922 19.5949 16.4913 20.1875 14.9994 20.1875Z" fill="white"/>
</g>
</svg>
