<svg width="30" height="31" viewBox="0 0 30 31" fill="none" xmlns="http://www.w3.org/2000/svg">
<g id="majesticons:paper-fold-text">
<g id="Group">
<path id="Vector" d="M7.5 26.75H22.5C21.25 26.75 18.75 26 18.75 23V20.5H3.75V23C3.75 26 6.25 26.75 7.5 26.75Z" fill="white"/>
<path id="Vector_2" d="M11.25 14.25H16.25M6.25 16.75V6.75C6.25 6.08696 6.51339 5.45107 6.98223 4.98223C7.45107 4.51339 8.08696 4.25 8.75 4.25H23.75C24.413 4.25 25.0489 4.51339 25.5178 4.98223C25.9866 5.45107 26.25 6.08696 26.25 6.75V23C26.25 24.25 25.5 26.75 22.5 26.75L6.25 16.75ZM22.5 26.75H7.5C6.25 26.75 3.75 26 3.75 23V20.5H18.75V23C18.75 26 21.25 26.75 22.5 26.75ZM11.25 9.25H21.25H11.25Z" stroke="white" stroke-width="2" stroke-linecap="round" stroke-linejoin="round"/>
</g>
</g>
</svg>
