<svg width="25" height="25" viewBox="0 0 25 25" fill="none" xmlns="http://www.w3.org/2000/svg">
<path id="Vector" d="M24.6667 10.6001L21.875 9.76679C21.682 9.09289 21.4165 8.44187 21.0833 7.82513L22.45 5.26679C22.5013 5.17023 22.5201 5.0597 22.5035 4.95161C22.487 4.84353 22.4361 4.74365 22.3583 4.66679L20.3667 2.66679C20.2898 2.58902 20.1899 2.53809 20.0819 2.52158C19.9738 2.50507 19.8632 2.52385 19.7667 2.57513L17.225 3.93346C16.6022 3.58401 15.9426 3.30453 15.2583 3.10013L14.425 0.341794C14.3898 0.240141 14.3232 0.152293 14.2348 0.0908958C14.1465 0.0294982 14.0409 -0.0022827 13.9333 0.000127641H11.1167C11.0085 0.000631452 10.9032 0.0356564 10.8163 0.100105C10.7294 0.164554 10.6653 0.255063 10.6333 0.358461L9.8 3.10846C9.11001 3.31178 8.4448 3.59127 7.81667 3.94179L5.31667 2.59179C5.2201 2.54051 5.10957 2.52174 5.00148 2.53825C4.8934 2.55476 4.79352 2.60568 4.71667 2.68346L2.69167 4.65846C2.61389 4.73531 2.56297 4.83519 2.54645 4.94328C2.52994 5.05136 2.54872 5.16189 2.6 5.25846L3.95 7.75846C3.60005 8.38396 3.32056 9.04634 3.11667 9.73346L0.358333 10.5668C0.254936 10.5987 0.164427 10.6628 0.0999777 10.7498C0.0355288 10.8367 0.000503811 10.9419 0 11.0501V13.8668C0.000503811 13.975 0.0355288 14.0802 0.0999777 14.1672C0.164427 14.2541 0.254936 14.3182 0.358333 14.3501L3.13333 15.1835C3.33946 15.8591 3.6189 16.5102 3.96667 17.1251L2.6 19.7418C2.54872 19.8384 2.52994 19.9489 2.54645 20.057C2.56297 20.1651 2.61389 20.2649 2.69167 20.3418L4.68333 22.3335C4.76018 22.4112 4.86007 22.4622 4.96815 22.4787C5.07624 22.4952 5.18677 22.4764 5.28333 22.4251L7.85833 21.0501C8.46747 21.3788 9.11001 21.6414 9.775 21.8335L10.6083 24.6418C10.6403 24.7452 10.7044 24.8357 10.7913 24.9001C10.8782 24.9646 10.9835 24.9996 11.0917 25.0001H13.9083C14.0165 24.9996 14.1218 24.9646 14.2087 24.9001C14.2956 24.8357 14.3597 24.7452 14.3917 24.6418L15.225 21.8251C15.8843 21.6321 16.5212 21.3695 17.125 21.0418L19.7167 22.4251C19.8132 22.4764 19.9238 22.4952 20.0319 22.4787C20.1399 22.4622 20.2398 22.4112 20.3167 22.3335L22.3083 20.3418C22.3861 20.2649 22.437 20.1651 22.4535 20.057C22.4701 19.9489 22.4513 19.8384 22.4 19.7418L21.0167 17.1585C21.3478 16.5524 21.6132 15.9126 21.8083 15.2501L24.6167 14.4168C24.7201 14.3849 24.8106 14.3208 24.875 14.2338C24.9395 14.1469 24.9745 14.0417 24.975 13.9335V11.0918C24.9799 10.9882 24.953 10.8855 24.8979 10.7976C24.8428 10.7097 24.7621 10.6408 24.6667 10.6001ZM12.525 17.0835C11.6185 17.0835 10.7324 16.8146 9.97864 16.311C9.22491 15.8074 8.63745 15.0916 8.29055 14.2541C7.94365 13.4166 7.85289 12.495 8.02973 11.606C8.20658 10.7169 8.6431 9.90021 9.28409 9.25922C9.92508 8.61823 10.7418 8.18171 11.6308 8.00486C12.5199 7.82801 13.4415 7.91878 14.279 8.26568C15.1165 8.61258 15.8323 9.20004 16.3359 9.95376C16.8395 10.7075 17.1083 11.5936 17.1083 12.5001C17.1083 13.7157 16.6255 14.8815 15.7659 15.741C14.9064 16.6006 13.7406 17.0835 12.525 17.0835Z" fill="#05264E"/>
</svg>
