<svg width="1920" height="1138" viewBox="0 0 1920 1138" fill="none" xmlns="http://www.w3.org/2000/svg">
<path d="M1922.66 1137.5C1723.06 797.5 1014.66 834 747.661 978C1194.06 651.6 1730.99 567.167 1922.66 614.5V1137.5Z" fill="#F8F9FF"/>
<path d="M1922.66 961C1723.06 621 1014.66 834 747.661 978C1194.06 651.6 1730.99 567.167 1922.66 614.5V961Z" fill="#E3E7FF"/>
<path d="M923.747 914.565C291.661 1201.5 125.883 1007.53 0 957.5V-6H1922.66V737.456C1799.95 607.376 1438.16 649.5 923.747 914.565Z" fill="#1E34C0"/>
<path d="M1364.66 292.258C1021.13 190.888 887.328 -26.076 874.661 -149.742L2107.66 -188.742C2143.16 -201.576 2189.56 -165.842 2091.16 79.758C1992.76 325.358 1565.83 323.758 1364.66 292.258Z" fill="#112396"/>
<path d="M656.161 921.5C418.161 972.5 92.6611 712 2.66113 588V960.5C26.6611 960.5 121.661 1045.72 266.161 1069C420.161 1093.81 614.661 1048.5 821.161 960.5C1029.66 868.5 1306.66 743.5 1419.66 712C1317.16 719 961.148 856.146 656.161 921.5Z" fill="#3B53EC"/>
<path d="M652.161 960.5C412.058 1022.51 123.161 870 2.66113 743V960.5C26.6611 960.5 121.661 1045.72 266.161 1069C420.161 1093.81 614.661 1048.5 821.161 960.5C1029.66 868.5 1306.66 743.5 1419.66 712C1317.16 719 954.161 882.5 652.161 960.5Z" fill="#798BFF"/>
<path d="M653.661 993.5C413.558 1055.51 174.661 994 2.66113 850.5V960.5C22.6611 971.5 121.661 1045.72 266.161 1069C420.161 1093.81 614.661 1048.5 821.161 960.5C1029.66 868.5 1306.66 743.5 1419.66 712C1317.16 719 955.661 915.5 653.661 993.5Z" fill="#AEB9FF"/>
</svg>
