<svg width="165" height="65" viewBox="0 0 165 65" fill="none" xmlns="http://www.w3.org/2000/svg">
<g id="Logo_Tr&#198;&#176;&#225;&#187;&#157;ng_&#196;&#144;&#225;&#186;&#161;i_h&#225;&#187;&#141;c_FPT 1" clip-path="url(#clip0_696_1540)">
<g id="surface1">
<path id="Vector" d="M52.4613 0.487701C53.3462 0.165541 54.2814 0.00901072 55.2221 0.0244818H65.3492C62.9907 10.4173 60.6214 20.7947 58.2414 31.1567C57.5248 34.3828 54.5506 36.9455 51.2712 37.0375H40.5645C42.8221 27.1178 45.0843 17.1936 47.3518 7.26308C47.5346 6.55324 47.6417 5.81245 47.8856 5.13355C48.6499 2.97216 50.3278 1.26853 52.4613 0.487701ZM48.8308 12.0946C47.8244 16.3855 46.8639 20.6764 45.8872 24.9674C47.1538 25.0292 48.3429 24.273 48.9839 23.1927C49.6239 22.1125 49.5789 21.0468 49.8985 19.9666C52.0796 19.9666 54.2607 19.9821 56.4419 19.9666C57.2944 19.9648 58.0982 19.5662 58.623 18.8863C59.4926 17.8516 59.5385 16.4319 59.8887 15.1815C60.1173 14.3943 60.0876 13.4533 59.5079 12.8199C58.9282 12.1874 58.2414 12.0791 57.5248 12.0946C54.6271 12.0946 51.7294 12.1101 48.8308 12.0946Z" fill="#F27024"/>
<path id="Vector_2" d="M51.012 15.0121C53.041 14.9811 55.0538 15.0121 57.0675 14.9966C56.8992 15.691 56.747 16.3853 56.5796 17.0797H50.5547C50.7068 16.3853 50.8752 15.7064 51.012 15.0121Z" fill="#F27024"/>
<path id="Vector_3" d="M119.602 54.0474C119.892 52.4266 121.249 51.0997 122.82 50.7284C124.391 50.358 126.344 50.6055 127.35 52.0407C127.335 51.6394 127.319 51.238 127.289 50.8522H130.339V55.2669H127.304C126.785 54.3559 126.054 53.353 124.925 53.3066C124.162 53.1983 123.217 53.8162 123.415 54.6799C123.613 55.5444 124.544 55.6063 125.215 55.7765C126.969 56.085 128.89 56.378 130.203 57.7058C131.987 59.697 131.255 63.37 128.83 64.4967C126.785 65.454 124.116 65.0682 122.546 63.37L122.637 64.7287H119.617C119.648 63.1543 119.602 61.5799 119.648 60.0055C120.7 60.0365 121.753 60.021 122.805 60.021C123.4 60.7773 124.01 61.5954 124.955 61.9194C125.627 62.1505 126.496 62.1505 127.014 61.5954C127.224 61.3724 127.326 61.0667 127.294 60.7609C127.262 60.4551 127.098 60.1784 126.847 60.0055C126.19 59.5732 125.382 59.5578 124.635 59.4185C123.217 59.1874 121.707 58.8325 120.624 57.8132C119.541 56.7948 119.343 55.3597 119.602 54.0474Z" fill="#F27024"/>
<path id="Vector_4" d="M0.130537 50.8369H12.1795C12.1795 52.5196 12.1642 54.2023 12.1795 55.8841H9.7697C9.49514 55.1433 9.22059 54.4025 8.97664 53.6617C7.69568 53.6308 6.39941 53.6463 5.11755 53.6463C5.11755 54.3716 5.11755 55.0969 5.10315 55.8222C5.95652 55.8686 6.79549 55.8377 7.63447 55.8532V58.941C6.79549 58.9255 5.95652 58.941 5.11755 58.941C5.11755 59.9129 5.13286 60.8858 5.10315 61.8577H6.91792V64.698H0.130537C0.130537 63.7561 0.115234 62.8151 0.130537 61.8887H1.50332C1.48801 59.1567 1.51862 56.4092 1.47271 53.6617C1.03072 53.6772 0.572527 53.6772 0.115234 53.6617C0.130537 52.7198 0.0999313 51.7788 0.130537 50.8369Z" fill="#F27024"/>
<path id="Vector_5" d="M12.9115 50.8369C15.3213 50.8679 17.731 50.8369 20.1408 50.8524C21.33 50.8679 22.5812 51.2382 23.4202 52.1183C24.5031 53.214 24.7624 54.9276 24.4419 56.3937C24.2088 57.5741 23.44 58.5742 22.367 59.0948C20.9798 59.8201 19.3631 59.6199 17.8526 59.6354V61.8887H19.2866C19.3172 62.8306 19.2866 63.7716 19.3019 64.7135C17.1666 64.7135 15.0161 64.729 12.8809 64.698C12.9115 63.7561 12.8809 62.8306 12.9115 61.8887H14.314C14.2986 59.1412 14.314 56.4092 14.2986 53.6617H12.8962C12.8962 52.7198 12.8809 51.7788 12.9115 50.8369ZM17.8526 53.6617V57.0262C18.6609 57.0107 19.5458 57.1036 20.293 56.6713C21.0401 56.239 21.1778 54.3716 20.1408 53.8929C19.4234 53.5534 18.615 53.6772 17.8526 53.6617Z" fill="#F27024"/>
<path id="Vector_6" d="M25.2204 50.8521H36.7661V55.8073H34.5391C34.2951 55.0966 34.0818 54.3712 33.8378 53.6459C33.4715 53.6614 33.1213 53.6459 32.7702 53.6459C32.7549 56.4089 32.7702 59.1563 32.7702 61.9193H34.143C34.1277 62.8612 34.143 63.7867 34.143 64.7286H27.7976C27.8129 63.7867 27.7976 62.8457 27.8129 61.9193H29.1704C29.1857 59.1563 29.1857 56.4089 29.1704 53.6614H28.1181C27.9047 54.3867 27.6608 55.0966 27.4168 55.8073C26.6841 55.8219 25.9522 55.8219 25.2051 55.8073C25.2204 54.1401 25.2051 52.4883 25.2204 50.8521Z" fill="#F27024"/>
<path id="Vector_7" d="M42.4102 50.8369C44.5454 50.8578 46.6806 50.8578 48.8159 50.8369C48.8159 51.7788 48.8312 52.7353 48.8006 53.6772H47.3675C47.3828 55.6065 47.3522 57.5359 47.3828 59.4497C47.3675 60.2214 47.6879 61.0705 48.4351 61.3945C49.1822 61.7185 50.4326 61.7185 51.1194 61.0241C51.5308 60.6228 51.6532 60.0212 51.6379 59.4652V53.6617H50.2345C50.2192 52.7198 50.2345 51.7788 50.2345 50.8524H56.5952C56.5952 51.7943 56.5952 52.7353 56.5799 53.6772H55.2531C55.2675 55.7612 55.2675 57.8444 55.2675 59.9284C55.2531 61.1633 54.8867 62.4447 54.0171 63.3393C53.1475 64.2348 51.6226 64.8673 50.2499 64.9601C48.8771 65.0529 46.9858 64.8518 45.6742 63.8953C44.3627 62.938 43.7982 61.5492 43.8135 60.0831C43.8288 57.9527 43.8135 55.8222 43.8288 53.6927H42.4102V50.8369Z" fill="#F27024"/>
<path id="Vector_8" d="M57.1735 50.8369C58.8055 50.8369 60.4376 50.8524 62.0696 50.8369C63.5801 53.3532 65.0744 55.8841 66.5993 58.3849C66.5237 56.8105 66.539 55.2361 66.4625 53.6617H65.0132C65.0285 52.7198 65.0132 51.7788 65.0285 50.8524H71.3127V53.6772H69.9399C69.9399 57.3511 69.9246 61.0241 69.9552 64.698C68.9641 64.729 67.9721 64.698 66.981 64.7135C65.2878 61.966 63.671 59.1876 61.9634 56.4556C62.0237 58.2612 62.0237 60.0831 62.0543 61.9041H63.5036V64.698H57.1735C57.1735 63.7561 57.1582 62.8151 57.1735 61.8887H58.5769V53.6617H57.1582C57.1735 52.7198 57.1582 51.7788 57.1735 50.8369Z" fill="#F27024"/>
<path id="Vector_9" d="M71.9082 50.8679C74.0434 50.8214 76.194 50.8524 78.3292 50.8524V53.6617H76.9105C76.9258 56.3937 76.9105 59.1257 76.9258 61.8732H78.3139C78.3445 62.8151 78.3292 63.7561 78.3292 64.698C76.194 64.6825 74.0434 64.7135 71.9082 64.6825C71.9388 63.7406 71.9082 62.8151 71.9388 61.8732H73.3413C73.3269 59.1257 73.3413 56.3937 73.3269 53.6463H71.9235C71.9082 52.7353 71.9388 51.7943 71.9082 50.8679Z" fill="#F27024"/>
<path id="Vector_10" d="M78.9084 50.8521H84.6579C84.6579 51.794 84.6732 52.735 84.6435 53.6769H83.4229C84.0638 55.8683 84.6732 58.0761 85.3294 60.2675C86.0154 58.0761 86.6104 55.8683 87.2666 53.6769H86.046C86.0154 52.735 86.0307 51.794 86.0307 50.8521C87.9373 50.8521 89.8439 50.8675 91.7504 50.8521V53.6769H90.6828C89.4784 57.3508 88.2577 61.0238 87.0686 64.7131H83.6209C82.4164 61.0238 81.1805 57.3508 79.976 53.6769H78.9237C78.8778 52.735 78.9084 51.794 78.9084 50.8521Z" fill="#F27024"/>
<path id="Vector_11" d="M92.3298 50.8521H104.608C104.608 52.5347 104.593 54.2174 104.608 55.8992H102.213C101.938 55.1584 101.648 54.4177 101.405 53.6769C100.032 53.6459 98.6751 53.6614 97.3177 53.6614V55.8683C98.217 55.8683 99.1324 55.8528 100.032 55.8683C100.017 56.903 100.032 57.9214 100.032 58.9552C99.1171 58.9552 98.217 58.9406 97.3177 58.9552V61.8883H101.389C101.648 61.0083 101.938 60.1283 102.198 59.2337H104.608C104.593 61.0702 104.608 62.8912 104.608 64.7131H92.3145C92.3298 63.7712 92.3298 62.8302 92.3145 61.9038C92.8024 61.9038 93.2758 61.9038 93.7484 61.8729C93.7178 59.1409 93.7331 56.4089 93.7331 53.6769H92.3145C92.3298 52.704 92.3145 51.7785 92.3298 50.8521Z" fill="#F27024"/>
<path id="Vector_12" d="M105.904 50.8521H113.942C114.75 50.8212 115.604 50.914 116.321 51.3617C117.816 52.2263 118.319 54.2939 117.694 55.8529C117.343 56.7019 116.55 57.1961 115.756 57.551C116.397 57.7522 117.175 58.0761 117.297 58.8479C117.45 59.8507 117.343 60.8855 117.373 61.8884H118.579C118.609 62.8303 118.579 63.7713 118.594 64.6977C116.992 64.7287 115.391 64.7132 113.789 64.7132C113.774 63.3699 113.819 62.0276 113.774 60.6844C113.744 60.0983 113.682 59.3875 113.118 59.079C112.554 58.7705 111.624 58.8788 110.891 58.8479V61.9038H111.959V64.6977H105.889C105.904 63.7558 105.904 62.8303 105.889 61.8884H107.261C107.292 59.1409 107.261 56.4089 107.277 53.6769H105.889C105.904 52.7195 105.889 51.7785 105.904 50.8521ZM110.891 53.6614V56.5172C111.73 56.4708 112.645 56.6555 113.439 56.3006C114.232 55.9457 114.368 54.233 113.393 53.8471C112.417 53.4612 111.715 53.7079 110.891 53.6614Z" fill="#F27024"/>
<path id="Vector_13" d="M132.183 50.8369H138.574V53.6463H137.186C137.14 56.3937 137.171 59.1412 137.171 61.8887H138.574C138.59 62.8306 138.559 63.7561 138.59 64.698C136.438 64.729 134.303 64.7135 132.168 64.698C132.183 63.7716 132.137 62.8306 132.183 61.8887H133.587C133.571 59.1412 133.587 56.4092 133.571 53.6617H132.168C132.168 52.7198 132.153 51.7788 132.183 50.8369Z" fill="#F27024"/>
<path id="Vector_14" d="M139.306 50.8521H150.852V55.8073H148.61C148.396 55.0811 148.152 54.3712 147.939 53.6459H146.856C146.856 56.3934 146.841 59.1409 146.856 61.9038H148.26V64.6977H141.884C141.899 63.7558 141.884 62.8148 141.899 61.8883H143.256C143.272 59.1254 143.272 56.3779 143.256 53.615H142.204L141.518 55.7609C140.785 55.7764 140.038 55.7764 139.291 55.7609C139.306 54.1401 139.291 52.4883 139.306 50.8521Z" fill="#F27024"/>
<path id="Vector_15" d="M151.28 50.8368C153.278 50.8522 155.292 50.8522 157.29 50.8368C157.305 51.7787 157.29 52.7197 157.305 53.6461H156.237C156.863 54.7109 157.503 55.7456 158.129 56.8104C158.8 55.7766 159.41 54.7109 160.02 53.6461H159.014C159.014 52.7042 158.998 51.7632 159.029 50.8213C160.98 50.8522 162.933 50.8213 164.885 50.8213C164.885 51.7632 164.87 52.7042 164.901 53.6306H163.833C162.522 55.6218 161.149 57.5666 159.868 59.5578C159.822 60.3296 159.868 61.0858 159.852 61.8576H161.286C161.316 62.7995 161.286 63.7405 161.301 64.6669C159.166 64.6824 157.015 64.6979 154.88 64.6669C154.91 63.725 154.88 62.7995 154.91 61.8576H156.283C156.237 61.1013 156.299 60.3296 156.253 59.5888C154.987 57.5821 153.63 55.6528 152.363 53.6616L151.266 53.6306C151.28 52.7197 151.266 51.7787 151.28 50.8368Z" fill="#F27024"/>
<path id="Vector_16" d="M27.8901 11.7549C28.6372 8.4978 31.5961 5.82769 34.9367 5.73486H45.5976C44.0628 12.5266 42.5171 19.3075 40.9616 26.0783C40.092 29.0424 37.2394 31.3266 34.1589 31.3576H23.4062C24.9006 24.8288 26.3805 18.2837 27.8901 11.7549ZM32.0084 12.3564C30.9867 12.8197 30.1018 13.7152 29.8732 14.8418C29.1098 18.2218 28.3321 21.5872 27.5849 24.9671C29.171 25.029 30.7121 23.8095 31.0623 22.2351C31.2306 21.4789 31.3981 20.7226 31.5808 19.9664C33.2083 19.9873 34.8404 19.9873 36.4769 19.9664C37.9874 19.8735 39.3296 18.6231 39.6195 17.1261H32.237C32.3892 16.4317 32.5575 15.7218 32.7096 15.0275C34.8296 14.9965 36.9495 15.0275 39.0703 15.012C40.6871 15.012 42.1202 13.6997 42.4253 12.1253H34.4794C33.6557 12.1253 32.7862 12.0325 32.0084 12.3564Z" fill="#0066B2"/>
<path id="Vector_17" d="M99.179 14.1942C99.6822 14.1787 100.17 14.1787 100.673 14.1942V24.5816C99.5039 25.0858 98.2068 25.205 96.9672 24.9211C95.7619 24.6126 94.8779 23.5014 94.7096 22.2819C94.5421 21.0624 94.6637 19.2259 95.7772 18.2221C96.8907 17.2193 98.0501 17.3276 99.1943 17.6206C99.179 16.4785 99.1943 15.3363 99.179 14.1942ZM96.9366 19.0867C96.311 19.6427 96.1283 20.5382 96.1436 21.34C96.1589 22.1427 96.3416 23.0072 96.9978 23.5014C97.6532 23.9955 98.4768 23.9027 99.1943 23.6561C99.179 22.0508 99.179 20.4299 99.1943 18.8091C98.4615 18.578 97.5469 18.5316 96.9366 19.0867Z" fill="#0066B2"/>
<path id="Vector_18" d="M125.885 14.5954C126.464 14.2714 127.303 14.7647 127.196 15.4591C127.089 16.1543 126.129 16.4938 125.641 15.9687C125.453 15.7694 125.37 15.4909 125.418 15.2197C125.466 14.9476 125.639 14.7155 125.885 14.5954Z" fill="#0066B2"/>
<path id="Vector_19" d="M88.7754 14.9966H93.9307V16.3544H90.3012V19.1947C91.3841 19.1947 92.4814 19.2102 93.5644 19.1947C93.5797 19.627 93.5797 20.0592 93.595 20.507C92.4967 20.5379 91.3985 20.507 90.3012 20.5225C90.3012 21.5408 90.2859 22.5437 90.3165 23.5784C91.5056 23.5475 92.711 23.5784 93.9154 23.5475C93.9307 24.0107 93.9307 24.4585 93.9307 24.9053H88.7754V14.9966Z" fill="#0066B2"/>
<path id="Vector_20" d="M121.722 15.8151C122.225 15.6759 122.713 15.5057 123.217 15.3828C123.201 16.0927 123.217 16.818 123.201 17.5278H124.665C124.65 17.9137 124.665 18.2995 124.665 18.6854H123.217C123.231 20.1215 123.186 21.5721 123.231 23.0073C123.323 23.6716 124.147 23.7326 124.665 23.5633C124.655 23.9956 124.655 24.4279 124.665 24.8592C123.918 25.0294 123.048 25.1068 122.408 24.6281C121.767 24.1494 121.722 23.5169 121.722 22.869V18.7009H120.73V17.5433H121.706C121.722 16.9727 121.722 16.4012 121.722 15.8151Z" fill="#0066B2"/>
<path id="Vector_21" d="M109.535 18.4074C110.542 17.1725 112.448 17.0951 113.745 17.8823C113.577 18.2527 113.409 18.6231 113.256 18.9935C112.693 18.685 112.021 18.5157 111.411 18.7624C110.801 19.009 110.282 19.9354 110.222 20.7226C110.161 21.5098 110.252 22.7293 111 23.3773C111.747 24.0261 112.57 23.825 113.242 23.4237L113.745 24.5658C112.722 25.1683 111.365 25.2602 110.313 24.6896C109.26 24.1181 108.818 23.0997 108.681 22.0349C108.544 20.9693 108.681 19.3794 109.535 18.4074Z" fill="#0066B2"/>
<path id="Vector_22" d="M114.614 17.8981C115.85 17.3739 117.268 17.1882 118.565 17.5896C119.434 17.8362 119.983 18.7317 119.968 19.6272V24.5661C118.824 25.0912 117.512 25.153 116.276 24.9829C115.483 24.8746 114.66 24.4732 114.354 23.686C114.05 22.8997 114.172 21.5874 115.026 21.0159C115.88 20.4453 117.359 20.2597 118.549 20.1978C118.58 19.6426 118.519 18.9328 117.939 18.6853C116.978 18.2994 115.926 18.5924 114.995 18.9637L114.614 17.8981ZM116.078 21.7722C115.392 22.2509 115.483 23.4549 116.261 23.7634C117.039 24.0728 117.802 23.9645 118.549 23.7789C118.565 22.9298 118.549 22.0816 118.565 21.2325C117.726 21.3099 116.795 21.2789 116.078 21.7722Z" fill="#0066B2"/>
<path id="Vector_23" d="M130.172 17.5585C130.946 17.2955 131.787 17.3119 132.551 17.6049C133.603 18.0372 134.244 19.1175 134.412 20.2132C134.579 21.3098 134.488 22.8533 133.726 23.9025C132.643 25.4151 130.111 25.477 128.951 24.0263C128.067 22.9916 127.975 21.5255 128.143 20.2286C128.311 18.9327 129.028 17.9289 130.172 17.5585ZM130.629 18.7471C129.775 19.2103 129.592 20.2905 129.592 21.1706C129.592 22.0506 129.744 23.038 130.492 23.5786C131.24 24.1182 131.925 23.8716 132.384 23.3156C132.841 22.7604 132.947 22.0196 132.978 21.3253C133.008 20.63 132.887 19.7654 132.429 19.1484C131.971 18.5314 131.224 18.485 130.629 18.7471Z" fill="#0066B2"/>
<path id="Vector_24" d="M135.447 17.898C136.612 17.4447 137.869 17.2855 139.108 17.4347C139.794 17.5276 140.526 17.7906 140.923 18.4076C141.319 19.0246 141.319 19.6116 141.319 20.2286C141.319 21.7875 141.334 23.3619 141.319 24.9209C140.801 24.9054 140.297 24.9054 139.794 24.9209C139.779 23.2546 139.81 21.6028 139.779 19.9356C139.779 19.4878 139.581 18.9937 139.153 18.8089C138.467 18.4849 137.674 18.6233 136.973 18.8244V24.9209H135.447V17.898Z" fill="#0066B2"/>
<path id="Vector_25" d="M101.924 17.5584H103.419C103.434 19.1793 103.404 20.8155 103.434 22.4364C103.419 22.9451 103.648 23.5166 104.166 23.7013C104.685 23.887 105.508 23.8096 106.165 23.6404V17.543H107.628C107.674 19.8891 107.628 22.2352 107.659 24.5814C106.668 25.0136 105.57 25.1219 104.502 25.0755C103.709 25.0291 102.855 24.7825 102.382 24.1027C101.909 23.4238 101.909 22.7913 101.924 22.1124C101.924 20.5835 101.939 19.071 101.924 17.5584Z" fill="#0066B2"/>
<path id="Vector_26" d="M125.533 17.543H127.058V24.9208H125.533V17.543Z" fill="#0066B2"/>
<path id="Vector_27" d="M81.2104 26.9741C82.3545 26.6502 83.6508 27.4064 83.8947 28.595C84.1387 29.7835 83.4221 31.0958 82.2321 31.3115C81.043 31.5272 79.5477 30.5398 79.5784 29.1965C79.5324 28.1581 80.2148 27.2299 81.2104 26.9741ZM80.9511 27.6066C79.8835 28.24 79.8835 30.0147 80.9358 30.6481C81.5156 31.0494 82.2474 30.8947 82.8118 30.5707C82.6381 30.4761 82.4544 30.4032 82.2627 30.3541C81.9881 29.9992 81.8819 29.4286 81.4237 29.2739C81.4093 29.6443 81.4237 30.0301 81.4237 30.4005L80.9052 30.3696C80.9358 29.5369 80.9205 28.6878 80.9205 27.8387C81.4696 27.8851 82.1106 27.7149 82.5832 28.0544C83.0558 28.3938 82.7515 29.2275 82.1718 29.3512C82.4157 29.7216 82.675 30.1075 82.8883 30.5088C83.315 29.9227 83.5752 29.151 83.27 28.4403C82.9648 27.7304 81.7595 27.067 80.9511 27.6066ZM81.4237 28.2091V28.9344C81.7289 28.888 82.278 29.0272 82.2933 28.564C82.3086 28.1008 81.7136 28.271 81.4237 28.2091Z" fill="#0066B2"/>
<path id="Vector_28" d="M67.7129 7.24757C68.9839 6.25652 70.5467 5.72323 72.1517 5.73506H82.4777C81.0131 12.2183 79.5341 18.7007 78.0389 25.1839C77.6266 27.0459 76.5725 28.6986 75.0647 29.8452C73.79 30.8308 72.23 31.3623 70.6268 31.3577H60.3008C61.7645 24.8954 63.239 18.4285 64.7234 11.9553C65.151 10.1033 66.188 8.37514 67.7129 7.24757ZM67.8506 14.8575C68.7652 15.135 69.7572 14.9348 70.7024 14.9967C69.9399 18.3203 69.1829 21.6438 68.4303 24.9673C70.0624 25.0292 71.6179 23.7633 71.9384 22.158C72.4722 19.7654 73.0366 17.3893 73.5704 14.9967H78.2828C78.3288 14.4561 78.4053 13.8701 78.1766 13.3604C77.8463 12.5978 77.0919 12.1155 76.27 12.141H66.63C66.3554 13.1903 66.783 14.4716 67.8506 14.8575Z" fill="#0DB04B"/>
</g>
</g>
<defs>
<clipPath id="clip0_696_1540">
<rect width="165" height="65" fill="white"/>
</clipPath>
</defs>
</svg>
