<svg width="24" height="25" viewBox="0 0 24 25" fill="none" xmlns="http://www.w3.org/2000/svg">
<g id="Group 410">
<path id="Vector 40" d="M8.5 24.5H4.5C3.94772 24.5 3.5 24.0523 3.5 23.5V12.9142C3.5 12.649 3.60536 12.3946 3.79289 12.2071L11.2929 4.70711C11.6834 4.31658 12.3166 4.31658 12.7071 4.70711L20.2071 12.2071C20.3946 12.3946 20.5 12.649 20.5 12.9142V23.5C20.5 24.0523 20.0523 24.5 19.5 24.5H16C15.4477 24.5 15 24.0523 15 23.5V20C15 19.4477 14.5523 19 14 19H10.5C9.94772 19 9.5 19.4477 9.5 20V23.5C9.5 24.0523 9.05228 24.5 8.5 24.5Z" fill="white" stroke="white"/>
<path id="Vector 41" d="M1 12L11.2929 1.70711C11.6834 1.31658 12.3166 1.31658 12.7071 1.70711L23 12" stroke="white" stroke-width="2" stroke-linecap="round"/>
</g>
</svg>
