<svg width="26" height="25" viewBox="0 0 26 25" fill="none" xmlns="http://www.w3.org/2000/svg">
<path id="Combined-Shape" fill-rule="evenodd" clip-rule="evenodd" d="M11.635 0C14.6925 0 17.18 2.4875 17.18 5.545V6.71C17.18 7.2275 16.76 7.6475 16.2425 7.6475C15.725 7.6475 15.305 7.2275 15.305 6.71V5.545C15.305 3.52 13.6587 1.875 11.635 1.875H5.54125C3.52 1.875 1.875 3.52 1.875 5.545V19.4562C1.875 21.48 3.52 23.125 5.54125 23.125H11.6487C13.6637 23.125 15.305 21.485 15.305 19.47V18.2913C15.305 17.7738 15.725 17.3538 16.2425 17.3538C16.76 17.3538 17.18 17.7738 17.18 18.2913V19.47C17.18 22.52 14.6975 25 11.6487 25H5.54125C2.48625 25 0 22.5138 0 19.4562V5.545C0 2.4875 2.48625 0 5.54125 0H11.635ZM21.7351 8.1925L25.3951 11.8363C25.4278 11.8687 25.457 11.9023 25.4838 11.938L25.3951 11.8363C25.4394 11.8799 25.4788 11.9276 25.513 11.9785C25.528 12.0016 25.5425 12.0254 25.556 12.0499C25.5669 12.069 25.5769 12.089 25.5862 12.1093C25.5941 12.1273 25.6017 12.1452 25.6087 12.1635C25.6181 12.1872 25.6264 12.2116 25.6336 12.2364C25.6391 12.2559 25.6441 12.2753 25.6485 12.295C25.6541 12.3189 25.6585 12.3429 25.6619 12.3671C25.6639 12.3828 25.6658 12.3993 25.6673 12.4159C25.6701 12.4445 25.6714 12.4722 25.6714 12.5L25.665 12.5775L25.6624 12.6272C25.6621 12.6293 25.6619 12.6314 25.6616 12.6335L25.6714 12.5C25.6714 12.5694 25.6637 12.6381 25.6488 12.7049C25.6441 12.7247 25.6391 12.7441 25.6335 12.7633C25.6264 12.7884 25.6181 12.8128 25.6089 12.8368C25.6017 12.8548 25.5941 12.8727 25.586 12.8904C25.5769 12.911 25.5669 12.931 25.5561 12.9506C25.5425 12.9746 25.528 12.9984 25.5125 13.0216C25.5037 13.0353 25.4941 13.0488 25.4841 13.0621C25.4543 13.1012 25.4219 13.1381 25.3868 13.1722L21.7351 16.8088C21.5526 16.9912 21.3126 17.0825 21.0739 17.0825C20.8339 17.0825 20.5926 16.9912 20.4101 16.8062C20.0451 16.4387 20.0464 15.8463 20.4126 15.4813L22.4625 13.4375H9.68225C9.16475 13.4375 8.74475 13.0175 8.74475 12.5C8.74475 11.9825 9.16475 11.5625 9.68225 11.5625H22.465L20.4126 9.52C20.0464 9.155 20.0439 8.5625 20.4101 8.195C20.7751 7.8275 21.3676 7.8275 21.7351 8.1925Z" fill="white"/>
</svg>
