<svg width="30" height="31" viewBox="0 0 30 31" fill="none" xmlns="http://www.w3.org/2000/svg">
<g id="Icon/sales" clip-path="url(#clip0_491_8938)">
<path id="Vector" fill-rule="evenodd" clip-rule="evenodd" d="M15.785 27.265L23.2463 19.8025L25.0688 24.44L9.64375 30.5L3.63375 15.2025L15.785 27.265ZM14.19 0.5H2.5V12.3162L15.7812 25.5L27.5 13.7812L14.19 0.5ZM19.2213 12.345C18.7025 11.8263 18.14 11.5738 17.4987 11.5738C16.7762 11.5738 15.965 11.875 14.785 12.5788C13.9325 13.0913 13.3875 13.3088 12.965 13.3088C12.5138 13.3088 11.6112 12.7987 11.7638 11.7863C11.8288 11.355 12.0763 10.915 12.4788 10.5112C13.2937 9.6975 14.4087 9.45125 15.3237 10.3787L16.2537 9.44875C15.6588 8.85375 14.8837 8.45875 14.0525 8.45875C13.345 8.45875 12.6463 8.7425 11.9738 9.305L11.1912 8.52125L10.3188 9.395L11.135 10.21C10.4237 11.2425 10.0825 12.7363 11.23 13.8825C12.4938 15.1463 13.965 14.5588 15.4963 13.5925C16.2463 13.1187 16.85 12.8888 17.34 12.8888C18.0763 12.8888 18.815 13.5112 18.6875 14.4612C18.6225 14.9437 18.3625 15.415 17.9113 15.8638C17.3475 16.4275 16.7812 16.7125 16.2275 16.7125C15.705 16.7125 15.2937 16.4725 14.9162 16.135L13.9925 17.0588C14.5712 17.6313 15.345 18 16.1613 18C16.8412 18 17.52 17.7488 18.1763 17.2537L18.8512 17.9263L19.7225 17.055L19.0725 16.4037C20.0013 15.2837 20.5187 13.6425 19.2213 12.345ZM7.12375 3C8.29625 3 9.2475 3.95125 9.2475 5.12375C9.2475 6.29625 8.29625 7.2475 7.12375 7.2475C5.95125 7.2475 5 6.29625 5 5.12375C5 3.95125 5.95125 3 7.12375 3Z" fill="white"/>
</g>
<defs>
<clipPath id="clip0_491_8938">
<rect width="30" height="30" fill="white" transform="translate(0 0.5)"/>
</clipPath>
</defs>
</svg>
